# Generated from the Crush CAD export; metres, +X forward, +Y right, +Z down.
v -0.006 -0.035 -0.008
v -0.006 -0.035 0.008
v -0.006 0.035 -0.008
v -0.006 0.035 0.008
v 0.006 -0.035 -0.008
v 0.006 -0.035 0.008
v 0.006 0.035 -0.008
v 0.006 0.035 0.008
vn -1 0 0
vn -1 0 0
vn 1 0 0
vn 1 0 0
vn 0 -1 0
vn 0 -1 0
vn 0 1 0
vn 0 1 0
vn 0 0 -1
vn 0 0 -1
vn 0 0 1
vn 0 0 1
f 1//1 2//1 4//1
f 1//2 4//2 3//2
f 5//3 7//3 8//3
f 5//4 8//4 6//4
f 1//5 5//5 6//5
f 1//6 6//6 2//6
f 3//7 4//7 8//7
f 3//8 8//8 7//8
f 1//9 3//9 7//9
f 1//10 7//10 5//10
f 2//11 6//11 8//11
f 2//12 8//12 4//12
